<?xml version="1.0" encoding="UTF-8" standalone="no"?>
<svg
   version="1.1"
   width="698.10687"
   height="305.1116"
   id="svg958"
   viewBox="0 0 698.10687 305.1116"
   sodipodi:docname="diagram_dark.svg"
   inkscape:version="1.1 (c68e22c387, 2021-05-23)"
   xmlns:inkscape="http://www.inkscape.org/namespaces/inkscape"
   xmlns:sodipodi="http://sodipodi.sourceforge.net/DTD/sodipodi-0.dtd"
   xmlns="http://www.w3.org/2000/svg"
   xmlns:svg="http://www.w3.org/2000/svg"
   xmlns:rdf="http://www.w3.org/1999/02/22-rdf-syntax-ns#"
   xmlns:cc="http://creativecommons.org/ns#"
   xmlns:dc="http://purl.org/dc/elements/1.1/">
  <metadata
     id="metadata964">
    <rdf:RDF>
      <cc:Work
         rdf:about="">
        <dc:format>image/svg+xml</dc:format>
        <dc:type
           rdf:resource="http://purl.org/dc/dcmitype/StillImage" />
      </cc:Work>
    </rdf:RDF>
  </metadata>
  <defs
     id="defs962">
    <marker
       inkscape:stockid="Arrow1Mend"
       orient="auto"
       refY="0"
       refX="0"
       id="marker1643"
       style="overflow:visible"
       inkscape:isstock="true">
      <path
         id="path1641"
         d="M 0,0 5,-5 -12.5,0 5,5 Z"
         style="fill:#000000;fill-opacity:1;fill-rule:evenodd;stroke:#000000;stroke-width:1pt;stroke-opacity:1"
         transform="matrix(-0.4,0,0,-0.4,-4,0)" />
    </marker>
    <marker
       inkscape:stockid="Arrow1Mend"
       orient="auto"
       refY="0"
       refX="0"
       id="marker1447"
       style="overflow:visible"
       inkscape:isstock="true">
      <path
         id="path1445"
         d="M 0,0 5,-5 -12.5,0 5,5 Z"
         style="fill:#000000;fill-opacity:1;fill-rule:evenodd;stroke:#000000;stroke-width:1pt;stroke-opacity:1"
         transform="matrix(-0.4,0,0,-0.4,-4,0)" />
    </marker>
    <marker
       inkscape:stockid="Arrow1Mend"
       orient="auto"
       refY="0"
       refX="0"
       id="marker1389"
       style="overflow:visible"
       inkscape:isstock="true">
      <path
         id="path1387"
         d="M 0,0 5,-5 -12.5,0 5,5 Z"
         style="fill:#000000;fill-opacity:1;fill-rule:evenodd;stroke:#000000;stroke-width:1pt;stroke-opacity:1"
         transform="matrix(-0.4,0,0,-0.4,-4,0)" />
    </marker>
    <marker
       inkscape:collect="always"
       inkscape:stockid="Arrow1Mend"
       orient="auto"
       refY="0"
       refX="0"
       id="marker1325"
       style="overflow:visible"
       inkscape:isstock="true">
      <path
         id="path1323"
         d="M 0,0 5,-5 -12.5,0 5,5 Z"
         style="fill:#000000;fill-opacity:1;fill-rule:evenodd;stroke:#000000;stroke-width:1pt;stroke-opacity:1"
         transform="matrix(-0.4,0,0,-0.4,-4,0)" />
    </marker>
    <marker
       inkscape:isstock="true"
       style="overflow:visible"
       id="Arrow1Mstart"
       refX="0"
       refY="0"
       orient="auto"
       inkscape:stockid="Arrow1Mstart">
      <path
         transform="matrix(0.4,0,0,0.4,4,0)"
         style="fill:#000000;fill-opacity:1;fill-rule:evenodd;stroke:#000000;stroke-width:1pt;stroke-opacity:1"
         d="M 0,0 5,-5 -12.5,0 5,5 Z"
         id="path938" />
    </marker>
    <marker
       inkscape:isstock="true"
       style="overflow:visible"
       id="Arrow1Lstart"
       refX="0"
       refY="0"
       orient="auto"
       inkscape:stockid="Arrow1Lstart">
      <path
         transform="matrix(0.8,0,0,0.8,10,0)"
         style="fill:#000000;fill-opacity:1;fill-rule:evenodd;stroke:#000000;stroke-width:1pt;stroke-opacity:1"
         d="M 0,0 5,-5 -12.5,0 5,5 Z"
         id="path1194" />
    </marker>
  </defs>
  <sodipodi:namedview
     inkscape:document-rotation="0"
     pagecolor="#ffffff"
     bordercolor="#666666"
     borderopacity="1"
     objecttolerance="10"
     gridtolerance="10"
     guidetolerance="10"
     inkscape:pageopacity="0"
     inkscape:pageshadow="2"
     inkscape:window-width="1280"
     inkscape:window-height="961"
     id="namedview960"
     showgrid="false"
     fit-margin-top="0"
     fit-margin-left="0"
     fit-margin-right="0"
     fit-margin-bottom="0"
     inkscape:zoom="0.6240807"
     inkscape:cx="463.88231"
     inkscape:cy="12.017677"
     inkscape:window-x="-8"
     inkscape:window-y="-8"
     inkscape:window-maximized="1"
     inkscape:current-layer="svg958"
     inkscape:pagecheckerboard="0" />
  <g
     id="Layer1000"
     transform="translate(-81.4547,-45.313)" />
  <g
     id="g12586">
    <g
       id="g3031">
      <path
         d="M 0.75,38.7015 V 304.3616 H 613.0335 V 38.7015 H 306.8917 V 0.75 H 0.75 Z"
         style="fill:none;stroke:#000000;stroke-width:1.5;stroke-linecap:round;stroke-linejoin:round;stroke-miterlimit:4;stroke-dasharray:none"
         id="path837" />
      <path
         d="m 40.8603,107.62817 h 105.4488 a 13.1809,13.1809 0 0 0 13.1811,-13.181104 v -23.4212 a 13.1809,13.1809 0 0 0 -13.1811,-13.1811 H 40.8603 a 13.1809,13.1809 0 0 0 -13.1811,13.1811 v 23.4212 a 13.1809,13.1809 0 0 0 13.1811,13.181104 z"
         style="fill:#4672c4;fill-rule:evenodd;stroke-width:0.75;stroke-linecap:round;stroke-linejoin:round"
         id="path844" />
      <path
         d="m 40.8603,107.62817 h 105.4488 a 13.1809,13.1809 0 0 0 13.1811,-13.181104 v -23.4212 a 13.1809,13.1809 0 0 0 -13.1811,-13.1811 H 40.8603 a 13.1809,13.1809 0 0 0 -13.1811,13.1811 v 23.4212 a 13.1809,13.1809 0 0 0 13.1811,13.181104 z"
         style="fill:none;stroke:#000000;stroke-width:0.75;stroke-linecap:round;stroke-linejoin:round;stroke-dasharray:none"
         id="path846" />
      <text
         x="53.206921"
         y="77.637794"
         id="text851"
         style="font-style:normal;font-variant:normal;font-weight:normal;font-stretch:normal;font-size:12px;font-family:Consolas;-inkscape-font-specification:'Consolas, Normal';font-variant-ligatures:normal;font-variant-caps:normal;font-variant-numeric:normal;font-variant-east-asian:normal;fill:#e6e6e6"><tspan
           sodipodi:role="line"
           id="tspan926"
           x="53.206921"
           y="77.637794"><tspan
             font-family="Calibri"
             font-size="10px"
             fill="#000000"
             fill-opacity="1"
             stroke-opacity="1"
             id="tspan849"
             style="font-style:normal;font-variant:normal;font-weight:normal;font-stretch:normal;font-size:12px;font-family:Consolas;-inkscape-font-specification:'Consolas, Normal';font-variant-ligatures:normal;font-variant-caps:normal;font-variant-numeric:normal;font-variant-east-asian:normal;fill:#e6e6e6">Climate Data</tspan></tspan><tspan
           sodipodi:role="line"
           id="tspan928"
           x="53.206921"
           y="92.637802"><tspan
             font-family="Calibri"
             font-size="10px"
             fill="#000000"
             fill-opacity="1"
             stroke-opacity="1"
             style="font-style:normal;font-variant:normal;font-weight:normal;font-stretch:normal;font-size:12px;font-family:Consolas;-inkscape-font-specification:'Consolas, Normal';font-variant-ligatures:normal;font-variant-caps:normal;font-variant-numeric:normal;font-variant-east-asian:normal;fill:#e6e6e6"
             id="tspan930">Importer</tspan></tspan></text>
      <text
         style="font-style:normal;font-variant:normal;font-weight:normal;font-stretch:normal;font-size:10.6667px;font-family:Consolas;-inkscape-font-specification:'Consolas, Normal';font-variant-ligatures:normal;font-variant-caps:normal;font-variant-numeric:normal;font-variant-east-asian:normal;fill:#e6e6e6"
         id="text858"
         y="146.80482"
         x="62.08622"><tspan
           style="font-style:normal;font-variant:normal;font-weight:normal;font-stretch:normal;font-size:10.6667px;font-family:Consolas;-inkscape-font-specification:'Consolas, Normal';font-variant-ligatures:normal;font-variant-caps:normal;font-variant-numeric:normal;font-variant-east-asian:normal;fill:#e6e6e6"
           id="tspan856"
           stroke-opacity="1"
           fill-opacity="1"
           fill="#000000"
           font-size="11px"
           font-family="Calibri">Writes data</tspan></text>
      <text
         id="text916"
         y="22.948658"
         x="25.840816"
         style="fill:#ffffff;fill-opacity:1"><tspan
           style="font-style:normal;font-variant:normal;font-weight:normal;font-stretch:normal;font-size:18.6667px;font-family:Consolas;-inkscape-font-specification:'Consolas, Normal';font-variant-ligatures:normal;font-variant-caps:normal;font-variant-numeric:normal;font-variant-east-asian:normal;fill:#ffffff;fill-opacity:1"
           id="tspan914"
           stroke-opacity="1"
           fill-opacity="1"
           fill="#000000"
           font-size="11px"
           font-family="Calibri">Docker Network</tspan></text>
      <path
         d="m 54.6083,193.38657 v 72.2835 a 38.9764,7.7953 0 0 0 77.9527,0 v -72.2835 a 38.9764,7.7953 0 0 0 -77.9527,0 z"
         style="fill:#aa4400;fill-rule:evenodd;stroke-width:0.25;stroke-linecap:round;stroke-linejoin:round"
         id="path861" />
      <path
         d="m 54.6083,193.38657 v 72.2835 a 38.9764,7.7953 0 0 0 77.9527,0 v -72.2835 a 38.9764,7.7953 0 0 0 -77.9527,0 z m 0,0 a 38.9764,7.7953 0 1 0 77.9527,0 m -77.9527,3.8977 a 38.9764,7.7953 0 1 0 77.9527,0 m -77.9527,3.8976 a 38.9764,7.7953 0 0 0 77.9527,0"
         style="fill:#aa4400;stroke:#c8c8c8;stroke-width:0.25;stroke-linecap:round;stroke-linejoin:round;stroke-dasharray:none"
         id="path863" />
      <text
         x="69.071716"
         y="231.59045"
         id="text868"
         style="font-style:normal;font-variant:normal;font-weight:normal;font-stretch:normal;font-size:12px;font-family:Consolas;-inkscape-font-specification:'Consolas, Normal';font-variant-ligatures:normal;font-variant-caps:normal;font-variant-numeric:normal;font-variant-east-asian:normal;fill:#e6e6e6;fill-opacity:1"><tspan
           font-family="Calibri"
           font-size="11px"
           fill="#000000"
           fill-opacity="1"
           stroke-opacity="1"
           id="tspan866"
           style="font-style:normal;font-variant:normal;font-weight:normal;font-stretch:normal;font-size:12px;font-family:Consolas;-inkscape-font-specification:'Consolas, Normal';font-variant-ligatures:normal;font-variant-caps:normal;font-variant-numeric:normal;font-variant-east-asian:normal;fill:#e6e6e6;fill-opacity:1">InfluxDB</tspan></text>
      <path
         d="m 230.5689,247.32727 h 75.4016 a 9.425,9.425 0 0 0 9.4252,-9.4252 v -16.7475 a 9.425,9.425 0 0 0 -9.4252,-9.4251 h -75.4016 a 9.425,9.425 0 0 0 -9.4252,9.4251 v 16.7475 a 9.425,9.425 0 0 0 9.4252,9.4252 z"
         style="fill:#4672c4;fill-rule:evenodd;stroke-width:0.75;stroke-linecap:round;stroke-linejoin:round"
         id="path871" />
      <path
         d="m 230.5689,247.32727 h 75.4016 a 9.425,9.425 0 0 0 9.4252,-9.4252 v -16.7475 a 9.425,9.425 0 0 0 -9.4252,-9.4251 h -75.4016 a 9.425,9.425 0 0 0 -9.4252,9.4251 v 16.7475 a 9.425,9.425 0 0 0 9.4252,9.4252 z"
         style="fill:none;stroke:#000000;stroke-width:0.75;stroke-linecap:round;stroke-linejoin:round;stroke-dasharray:none"
         id="path873" />
      <text
         x="244.17168"
         y="229.52837"
         id="text878"
         style="fill:#e6e6e6"><tspan
           font-family="Calibri"
           font-size="10px"
           fill="#000000"
           fill-opacity="1"
           stroke-opacity="1"
           id="tspan876"
           style="font-style:normal;font-variant:normal;font-weight:normal;font-stretch:normal;font-size:12px;font-family:Consolas;-inkscape-font-specification:'Consolas, Normal';font-variant-ligatures:normal;font-variant-caps:normal;font-variant-numeric:normal;font-variant-east-asian:normal;fill:#e6e6e6">Grafana</tspan></text>
      <path
         d="M 221.1437,229.52837 H 132.561"
         style="fill:none;stroke:#ffffff;stroke-width:1;stroke-linecap:round;stroke-linejoin:round;stroke-miterlimit:4;stroke-dasharray:none;marker-end:url(#marker1325);stroke-opacity:1"
         id="path881" />
      <text
         x="145.45425"
         y="226.12926"
         id="text885"
         style="font-style:normal;font-variant:normal;font-weight:normal;font-stretch:normal;font-size:10.6667px;font-family:Consolas;-inkscape-font-specification:'Consolas, Normal';font-variant-ligatures:normal;font-variant-caps:normal;font-variant-numeric:normal;font-variant-east-asian:normal;fill:#e6e6e6"><tspan
           font-family="Calibri"
           font-size="11px"
           fill="#000000"
           fill-opacity="1"
           stroke-opacity="1"
           id="tspan883"
           style="font-style:normal;font-variant:normal;font-weight:normal;font-stretch:normal;font-size:10.6667px;font-family:Consolas;-inkscape-font-specification:'Consolas, Normal';font-variant-ligatures:normal;font-variant-caps:normal;font-variant-numeric:normal;font-variant-east-asian:normal;fill:#e6e6e6">Fetches data</tspan></text>
      <path
         d="m 343.9547,247.32727 h 75.4016 a 9.425,9.425 0 0 0 9.4252,-9.4252 v -16.7475 a 9.425,9.425 0 0 0 -9.4252,-9.4251 h -75.4016 a 9.425,9.425 0 0 0 -9.4252,9.4251 v 16.7475 a 9.425,9.425 0 0 0 9.4252,9.4252 z"
         style="fill:#4672c4;fill-rule:evenodd;stroke-width:0.75;stroke-linecap:round;stroke-linejoin:round"
         id="path888" />
      <path
         d="m 343.9547,247.32727 h 75.4016 a 9.425,9.425 0 0 0 9.4252,-9.4252 v -16.7475 a 9.425,9.425 0 0 0 -9.4252,-9.4251 h -75.4016 a 9.425,9.425 0 0 0 -9.4252,9.4251 v 16.7475 a 9.425,9.425 0 0 0 9.4252,9.4252 z"
         style="fill:none;stroke:#000000;stroke-width:0.75;stroke-linecap:round;stroke-linejoin:round;stroke-dasharray:none"
         id="path890" />
      <text
         x="351.54861"
         y="229.52837"
         id="text895"
         style="fill:#e6e6e6"><tspan
           font-family="Calibri"
           font-size="10px"
           fill="#000000"
           fill-opacity="1"
           stroke-opacity="1"
           id="tspan893"
           style="font-style:normal;font-variant:normal;font-weight:normal;font-stretch:normal;font-size:12px;font-family:Consolas;-inkscape-font-specification:'Consolas, Normal';font-variant-ligatures:normal;font-variant-caps:normal;font-variant-numeric:normal;font-variant-east-asian:normal;fill:#e6e6e6">Flask App</tspan></text>
      <text
         x="197.19682"
         y="284.43784"
         id="text902"
         style="font-style:normal;font-variant:normal;font-weight:normal;font-stretch:normal;font-size:10.6667px;font-family:Consolas;-inkscape-font-specification:'Consolas, Normal';font-variant-ligatures:normal;font-variant-caps:normal;font-variant-numeric:normal;font-variant-east-asian:normal;fill:#e6e6e6"><tspan
           font-family="Calibri"
           font-size="11px"
           fill="#000000"
           fill-opacity="1"
           stroke-opacity="1"
           id="tspan900"
           style="font-style:normal;font-variant:normal;font-weight:normal;font-stretch:normal;font-size:10.6667px;font-family:Consolas;-inkscape-font-specification:'Consolas, Normal';font-variant-ligatures:normal;font-variant-caps:normal;font-variant-numeric:normal;font-variant-east-asian:normal;fill:#e6e6e6">Fetches data</tspan></text>
      <path
         d="m 466.5532,135.96227 h 75.4015 a 9.425,9.425 0 0 0 9.4252,-9.4252 v -16.7475 a 9.425,9.425 0 0 0 -9.4252,-9.4252 h -75.4015 a 9.425,9.425 0 0 0 -9.4252,9.4252 v 16.7475 a 9.425,9.425 0 0 0 9.4252,9.4252 z"
         style="fill:#4672c4;fill-rule:evenodd;stroke-width:0.75;stroke-linecap:round;stroke-linejoin:round"
         id="path905" />
      <path
         d="m 466.5532,135.96227 h 75.4015 a 9.425,9.425 0 0 0 9.4252,-9.4252 v -16.7475 a 9.425,9.425 0 0 0 -9.4252,-9.4252 h -75.4015 a 9.425,9.425 0 0 0 -9.4252,9.4252 v 16.7475 a 9.425,9.425 0 0 0 9.4252,9.4252 z"
         style="fill:none;stroke:#000000;stroke-width:0.75;stroke-linecap:round;stroke-linejoin:round;stroke-dasharray:none"
         id="path907" />
      <text
         x="484.35529"
         y="119.86292"
         id="text912"
         style="font-style:normal;font-variant:normal;font-weight:normal;font-stretch:normal;font-size:12px;font-family:Consolas;-inkscape-font-specification:'Consolas, Normal';font-variant-ligatures:normal;font-variant-caps:normal;font-variant-numeric:normal;font-variant-east-asian:normal;fill:#e6e6e6"><tspan
           font-family="Calibri"
           font-size="10px"
           fill="#000000"
           fill-opacity="1"
           stroke-opacity="1"
           id="tspan910"
           style="font-style:normal;font-variant:normal;font-weight:normal;font-stretch:normal;font-size:12px;font-family:Consolas;-inkscape-font-specification:'Consolas, Normal';font-variant-ligatures:normal;font-variant-caps:normal;font-variant-numeric:normal;font-variant-east-asian:normal;fill:#e6e6e6">Nginx</tspan></text>
      <text
         x="404.04352"
         y="114.74676"
         id="text919"
         style="font-style:normal;font-variant:normal;font-weight:normal;font-stretch:normal;font-size:10.6667px;font-family:Consolas;-inkscape-font-specification:'Consolas, Normal';font-variant-ligatures:normal;font-variant-caps:normal;font-variant-numeric:normal;font-variant-east-asian:normal;fill:#e6e6e6"><tspan
           font-family="Calibri"
           font-size="11px"
           fill="#000000"
           fill-opacity="1"
           stroke-opacity="1"
           id="tspan917"
           style="font-style:normal;font-variant:normal;font-weight:normal;font-stretch:normal;font-size:10.6667px;font-family:Consolas;-inkscape-font-specification:'Consolas, Normal';font-variant-ligatures:normal;font-variant-caps:normal;font-variant-numeric:normal;font-variant-east-asian:normal;fill:#e6e6e6">Serves</tspan></text>
      <path
         d="m 466.70673,247.32727 h 75.4016 a 9.425,9.425 0 0 0 9.4252,-9.4252 v -16.7475 a 9.425,9.425 0 0 0 -9.4252,-9.4251 h -75.4016 a 9.425,9.425 0 0 0 -9.4252,9.4251 v 16.7475 a 9.425,9.425 0 0 0 9.4252,9.4252 z"
         style="fill:#4672c4;fill-rule:evenodd;stroke-width:0.75;stroke-linecap:round;stroke-linejoin:round"
         id="path922" />
      <path
         d="m 466.70673,247.32727 h 75.4016 a 9.425,9.425 0 0 0 9.4252,-9.4252 v -16.7475 a 9.425,9.425 0 0 0 -9.4252,-9.4251 h -75.4016 a 9.425,9.425 0 0 0 -9.4252,9.4251 v 16.7475 a 9.425,9.425 0 0 0 9.4252,9.4252 z"
         style="fill:none;stroke:#ffffff;stroke-width:0.75;stroke-linecap:round;stroke-linejoin:round;stroke-dasharray:none;stroke-opacity:1"
         id="path924" />
      <text
         x="475.44446"
         y="226.12926"
         id="text929"
         style="fill:#f9f9f9"><tspan
           sodipodi:role="line"
           id="tspan919"
           x="475.44446"
           y="226.12926"><tspan
             font-family="Calibri"
             font-size="10px"
             fill="#000000"
             fill-opacity="1"
             stroke-opacity="1"
             id="tspan927"
             style="font-style:normal;font-variant:normal;font-weight:normal;font-stretch:normal;font-size:12px;font-family:Consolas;-inkscape-font-specification:'Consolas, Normal';font-variant-ligatures:normal;font-variant-caps:normal;font-variant-numeric:normal;font-variant-east-asian:normal;fill:#f9f9f9">React.js</tspan></tspan><tspan
           sodipodi:role="line"
           id="tspan921"
           x="475.44446"
           y="241.66512"><tspan
             font-family="Calibri"
             font-size="10px"
             fill="#000000"
             fill-opacity="1"
             stroke-opacity="1"
             style="font-style:normal;font-variant:normal;font-weight:normal;font-stretch:normal;font-size:12px;font-family:Consolas;-inkscape-font-specification:'Consolas, Normal';font-variant-ligatures:normal;font-variant-caps:normal;font-variant-numeric:normal;font-variant-east-asian:normal;fill:#f9f9f9"
             id="tspan923">Frontend</tspan></tspan></text>
      <text
         x="507.47919"
         y="178.13701"
         id="text943"
         style="font-style:normal;font-variant:normal;font-weight:normal;font-stretch:normal;font-size:10.6667px;font-family:Consolas;-inkscape-font-specification:'Consolas, Normal';font-variant-ligatures:normal;font-variant-caps:normal;font-variant-numeric:normal;font-variant-east-asian:normal;fill:#e6e6e6;fill-opacity:1"><tspan
           font-family="Calibri"
           font-size="11px"
           fill="#000000"
           fill-opacity="1"
           stroke-opacity="1"
           id="tspan941"
           style="font-style:normal;font-variant:normal;font-weight:normal;font-stretch:normal;font-size:10.6667px;font-family:Consolas;-inkscape-font-specification:'Consolas, Normal';font-variant-ligatures:normal;font-variant-caps:normal;font-variant-numeric:normal;font-variant-east-asian:normal;fill:#e6e6e6;fill-opacity:1">Uses API</tspan></text>
      <path
         d="m 689.274,91.540266 a 8.81,8.81 0 1 1 -8.81,-8.81 8.81,8.81 0 0 1 8.81,8.81 z m 1.2893,11.188904 h -20.414 c -3.9531,0 -7.1686,3.2156 -7.1686,7.1686 v 25.0041 h 5.5865 v -14.5498 h 1.8663 v 33.2443 h 9.097 v -14.8592 c 0,-0.5156 0.418,-0.9328 0.9328,-0.9328 0.5148,0 0.9328,0.4172 0.9328,0.9328 v 14.8592 h 9.6249 v -33.2999 h 1.8655 v 14.6054 h 4.8454 v -25.0041 c 0,-3.9523 -3.2155,-7.1686 -7.1686,-7.1686 z"
         style="fill:#ffc000;fill-rule:evenodd;stroke-width:0.75;stroke-linecap:round;stroke-linejoin:round"
         id="path946" />
      <path
         d="m 689.274,91.540266 a 8.81,8.81 0 1 1 -8.81,-8.81 8.81,8.81 0 0 1 8.81,8.81 z m 1.2893,11.188904 h -20.414 c -3.9531,0 -7.1686,3.2156 -7.1686,7.1686 v 25.0041 h 5.5865 v -14.5498 h 1.8663 v 33.2443 h 9.097 v -14.8592 c 0,-0.5156 0.418,-0.9328 0.9328,-0.9328 0.5148,0 0.9328,0.4172 0.9328,0.9328 v 14.8592 h 9.6249 v -33.2999 h 1.8655 v 14.6054 h 4.8454 v -25.0041 c 0,-3.9523 -3.2155,-7.1686 -7.1686,-7.1686 z"
         style="fill:none;stroke:#000000;stroke-width:0.75;stroke-linecap:round;stroke-linejoin:round;stroke-dasharray:none"
         id="path948" />
      <path
         d="M 551.37369,118.16337 H 661.58887"
         style="stroke:#ffffff;stroke-width:0.993773;stroke-linecap:round;stroke-linejoin:round;stroke-miterlimit:4;stroke-dasharray:none;marker-end:url(#marker1447);stroke-opacity:1;fill:#ffffff"
         id="path951" />
      <text
         x="568.66754"
         y="115.4724"
         id="text955"
         style="font-style:normal;font-variant:normal;font-weight:normal;font-stretch:normal;font-size:10.6667px;font-family:Consolas;-inkscape-font-specification:'Consolas, Normal';font-variant-ligatures:normal;font-variant-caps:normal;font-variant-numeric:normal;font-variant-east-asian:normal;fill:#e6e6e6"><tspan
           font-family="Calibri"
           font-size="11px"
           fill="#000000"
           fill-opacity="1"
           stroke-opacity="1"
           id="tspan953"
           style="font-style:normal;font-variant:normal;font-weight:normal;font-stretch:normal;font-size:10.6667px;font-family:Consolas;-inkscape-font-specification:'Consolas, Normal';font-variant-ligatures:normal;font-variant-caps:normal;font-variant-numeric:normal;font-variant-east-asian:normal;fill:#e6e6e6">Serves</tspan></text>
      <g
         id="g1949"
         transform="translate(-81.4547,-13.021434)"
         style="fill:#e6e6e6">
        <g
           id="g1960"
           transform="translate(0,-212.11199)"
           style="fill:#e6e6e6">
          <text
             x="542.76697"
             y="402.46753"
             id="text1547"
             style="font-style:normal;font-variant:normal;font-weight:normal;font-stretch:normal;font-size:10.6667px;font-family:Consolas;-inkscape-font-specification:'Consolas, Normal';font-variant-ligatures:normal;font-variant-caps:normal;font-variant-numeric:normal;font-variant-east-asian:normal;fill:#e6e6e6"><tspan
               font-family="Calibri"
               font-size="11px"
               fill="#000000"
               fill-opacity="1"
               stroke-opacity="1"
               id="tspan1545"
               style="font-style:normal;font-variant:normal;font-weight:normal;font-stretch:normal;font-size:10.6667px;font-family:Consolas;-inkscape-font-specification:'Consolas, Normal';font-variant-ligatures:normal;font-variant-caps:normal;font-variant-numeric:normal;font-variant-east-asian:normal;fill:#e6e6e6">Serves</tspan></text>
        </g>
      </g>
      <path
         style="stroke:#ffffff;stroke-width:1px;stroke-linecap:butt;stroke-linejoin:miter;stroke-opacity:1;fill:#ffffff;marker-end:url(#marker1325)"
         d="m 93.475587,151.07443 v 32.57483"
         id="path395" />
      <path
         style="stroke:#ffffff;stroke-width:1px;stroke-linecap:butt;stroke-linejoin:miter;stroke-opacity:1;fill:#ffffff"
         d="M 92.936699,136.20033 V 107.95879"
         id="path1459" />
      <g
         id="g2568"
         style="stroke:#ffffff;stroke-opacity:1">
        <path
           style="stroke:#ffffff;stroke-width:1.05083px;stroke-linecap:butt;stroke-linejoin:miter;stroke-opacity:1;marker-end:url(#marker1447);fill:#ffffff"
           d="m 478.50382,181.80841 v 27.86776"
           id="path1810" />
        <path
           style="stroke:#ffffff;stroke-width:1px;stroke-linecap:butt;stroke-linejoin:miter;stroke-opacity:1;fill:#ffffff"
           d="M 478.50382,167.246 V 136.40063"
           id="path1925" />
      </g>
      <g
         id="g2574"
         transform="rotate(180,503.14738,174.10062)"
         style="stroke:#ffffff;stroke-opacity:1">
        <path
           style="stroke:#ffffff;stroke-width:1.05083px;stroke-linecap:butt;stroke-linejoin:miter;stroke-opacity:1;marker-end:url(#marker1447);fill:#ffffff"
           d="m 478.50382,181.80841 v 27.86776"
           id="path2570" />
        <path
           style="stroke:#ffffff;stroke-width:1px;stroke-linecap:butt;stroke-linejoin:miter;stroke-opacity:1;fill:#ffffff"
           d="M 478.50382,167.246 V 136.40063"
           id="path2572" />
      </g>
      <path
         style="stroke:#ffffff;stroke-width:1px;stroke-linecap:butt;stroke-linejoin:miter;stroke-opacity:1;fill:none"
         d="m 383.16359,247.56414 v 39.05745 H 88.930807"
         id="path8629" />
      <path
         style="fill:none;stroke:#ffffff;stroke-width:1.02539px;stroke-linecap:butt;stroke-linejoin:miter;stroke-opacity:1;marker-end:url(#marker1389)"
         d="M 89.240101,287.11287 V 275.53014"
         id="path8824" />
      <path
         style="stroke:#ffffff;stroke-width:1px;stroke-linecap:butt;stroke-linejoin:miter;stroke-opacity:1;fill:#ffffff"
         d="m 457.47289,118.16337 h -74.5096"
         id="path9405" />
      <path
         style="stroke:#ffffff;stroke-width:1.01314px;stroke-linecap:butt;stroke-linejoin:miter;stroke-opacity:1;marker-end:url(#marker1325);fill:#ffffff"
         d="m 382.96329,117.66264 v 91.25063"
         id="path9680" />
      <path
         style="fill:#ffffff;fill-opacity:1;stroke:#ffffff;stroke-width:0.0567764;stroke-opacity:1"
         d="m 135.84982,231.02215 c -4.09466,-1.19325 -5.17602,-1.51793 -5.08654,-1.52722 0.0391,-0.004 1.95261,-0.54877 4.25231,-1.21046 2.2997,-0.6617 4.22207,-1.18949 4.27193,-1.17287 0.0499,0.0166 -0.45535,0.55334 -1.1227,1.19271 -0.66736,0.63936 -1.21338,1.19367 -1.21338,1.23179 0,0.0381 0.55206,0.60415 1.2268,1.25783 0.67475,0.65369 1.15921,1.18586 1.07659,1.18262 -0.0826,-0.003 -1.61488,-0.43273 -3.40501,-0.9544 z"
         id="path10600" />
      <path
         style="fill:#ffffff;fill-opacity:1;stroke:#ffffff;stroke-width:0.0567764;stroke-opacity:1"
         d="m 86.718712,282.4154 c 0.233974,-0.93735 2.501239,-8.7575 2.530535,-8.7282 0.05183,0.0518 2.527595,8.71967 2.498793,8.74847 -0.01262,0.0126 -0.580693,-0.53613 -1.262381,-1.21946 l -1.239432,-1.24242 -1.288755,1.32095 c -0.708816,0.72653 -1.266257,1.23082 -1.23876,1.12066 z"
         id="path10639" />
      <path
         style="fill:#ffffff;fill-opacity:1;stroke:#ffffff;stroke-width:0.0567764;stroke-opacity:1"
         d="m 92.240074,181.24001 c -0.654768,-2.29876 -1.208681,-4.24717 -1.230919,-4.3298 -0.02224,-0.0826 0.525746,0.42983 1.21774,1.13877 l 1.258172,1.28899 1.174082,-1.22549 c 0.645746,-0.67401 1.188926,-1.18095 1.207068,-1.12653 0.03804,0.11412 -2.266385,8.24921 -2.36816,8.3601 -0.03712,0.0405 -0.603215,-1.80727 -1.257983,-4.10604 z"
         id="path10678" />
      <path
         style="fill:#ffffff;fill-opacity:1;stroke:#ffffff;stroke-width:0.040147;stroke-opacity:1"
         d="m 381.6991,206.46767 c -0.69262,-2.42451 -1.24478,-4.42273 -1.22704,-4.44048 0.0177,-0.0177 0.5754,0.52639 1.23922,1.20919 0.66382,0.68281 1.22874,1.24147 1.25537,1.24147 0.0266,0 0.59154,-0.55866 1.25536,-1.24147 0.66382,-0.6828 1.21988,-1.22852 1.23569,-1.21272 0.0222,0.0222 -2.19168,7.88255 -2.44483,8.68054 -0.0413,0.13032 -0.35786,-0.89039 -1.31377,-4.23653 z"
         id="path10717" />
      <path
         style="fill:#ffffff;fill-opacity:1;stroke:#ffffff;stroke-width:0.040147;stroke-opacity:1"
         d="m 478.40938,211.33425 c -0.19464,-0.5503 -2.50203,-8.72168 -2.48078,-8.78543 0.0128,-0.0385 0.5981,0.52109 1.30058,1.24361 l 1.27723,1.31367 1.26921,-1.27068 c 0.69806,-0.69888 1.27858,-1.24257 1.29003,-1.2082 0.0251,0.0753 -2.35627,8.45747 -2.48372,8.74244 l -0.0894,0.1998 z"
         id="path10756" />
      <path
         style="fill:#ffffff;fill-opacity:1;stroke:#ffffff;stroke-width:0.040147;stroke-opacity:1"
         d="m 525.21777,145.5599 c 0.0793,-0.50057 2.56045,-8.99142 2.60388,-8.91068 0.0862,0.16023 2.55302,8.85445 2.53102,8.92045 -0.0114,0.0342 -0.5917,-0.50949 -1.28956,-1.20817 l -1.26885,-1.27032 -1.30226,1.32288 c -0.96731,0.98262 -1.29505,1.27734 -1.27423,1.14584 z"
         id="path10795" />
      <path
         style="fill:#ffffff;fill-opacity:1;stroke:#ffffff;stroke-width:0.040147;stroke-opacity:1"
         d="m 670.24279,153.87663 -0.15738,-0.11024 v -16.53125 -16.53125 h -0.56652 -0.56652 v 7.1523 c 0,7.05788 -0.002,7.15417 -0.14163,7.29393 -0.13697,0.13697 -0.23605,0.14163 -3.01428,0.14163 -1.84478,0 -2.92167,-0.0262 -3.00964,-0.0733 -0.13423,-0.0718 -0.13697,-0.24042 -0.13697,-8.42696 0,-4.59452 -0.018,-8.35366 -0.0399,-8.35366 -0.0219,0 -1.77682,0.49703 -3.89974,1.10451 -2.12291,0.60749 -3.87471,1.08966 -3.89287,1.07149 -0.0182,-0.0182 0.5294,-0.57833 1.21682,-1.24482 l 1.24985,-1.21179 -1.24951,-1.21478 c -0.68724,-0.66813 -1.23844,-1.22585 -1.22491,-1.23939 0.0135,-0.0135 1.7508,0.46878 3.86058,1.07182 2.10979,0.60304 3.86701,1.09644 3.90495,1.09644 0.0438,0 0.0772,-1.69753 0.0915,-4.65608 0.0223,-4.61055 0.0241,-4.66161 0.18505,-5.22259 0.77275,-2.6933 2.75628,-4.66071 5.4488,-5.40451 l 0.68732,-0.18986 h 11.36578 11.36578 l 0.68732,0.18986 c 1.86724,0.51582 3.41236,1.62095 4.43357,3.17107 0.7414,1.12541 1.10048,2.18707 1.22246,3.61433 0.0432,0.50587 0.0621,5.53124 0.0498,13.26579 -0.0195,12.23193 -0.0222,12.45319 -0.15726,12.55193 -0.11256,0.0823 -0.58915,0.10051 -2.63001,0.10051 -2.26941,0 -2.506,-0.0111 -2.64279,-0.12393 l -0.15025,-0.12392 -0.0169,-7.18771 -0.0169,-7.18771 -0.54881,-0.0207 -0.54882,-0.0207 v 16.53824 c 0,16.49796 -3.5e-4,16.5386 -0.14303,16.68128 -0.14115,0.14115 -0.2083,0.14278 -5.10127,0.12393 -4.31619,-0.0166 -4.96693,-0.0329 -5.02536,-0.12533 -0.0412,-0.0652 -0.0675,-2.9965 -0.0682,-7.58433 -7.6e-4,-5.27463 -0.0241,-7.54425 -0.0793,-7.70261 -0.043,-0.12348 -0.13655,-0.2557 -0.20778,-0.29382 -0.18863,-0.10095 -0.50704,-0.0809 -0.66995,0.0422 -0.13972,0.10555 -0.14211,0.21096 -0.17704,7.7931 -0.0346,7.50527 -0.0386,7.68846 -0.17287,7.7866 -0.11537,0.0844 -0.87801,0.1005 -4.74654,0.1005 -4.05696,0 -4.62793,-0.0132 -4.76647,-0.11024 z m 8.97773,-8.10429 c 0.0399,-8.41354 -0.008,-7.7545 0.59084,-8.10554 0.38116,-0.22337 0.85753,-0.23856 1.24721,-0.0398 0.33663,0.17174 0.54141,0.44814 0.636,0.85845 0.046,0.19954 0.0725,2.91546 0.0736,7.55241 l 0.002,7.24082 h 4.46133 4.46134 V 136.71206 120.1454 l 0.15738,-0.11023 c 0.12396,-0.0868 0.36461,-0.11024 1.13304,-0.11024 0.88123,0 0.98936,0.0137 1.11728,0.14163 0.13977,0.13977 0.14163,0.23605 0.14163,7.3304 v 7.18878 l 2.07133,-0.0188 2.07134,-0.0188 v -12.67585 c 0,-10.12896 -0.0185,-12.76834 -0.0922,-13.13616 -0.4959,-2.47529 -2.11937,-4.41052 -4.39743,-5.24191 -1.20083,-0.43824 -0.75723,-0.42327 -12.54132,-0.42327 -11.79601,0 -11.32925,-0.0159 -12.55505,0.42765 -0.80866,0.2926 -1.66021,0.83103 -2.33785,1.47821 -0.91817,0.87689 -1.48351,1.79215 -1.87204,3.03076 l -0.19521,0.62234 -0.0188,12.97775 -0.0188,12.97775 2.42652,-0.0186 2.42651,-0.0186 0.0176,-7.1877 c 0.0163,-6.65778 0.0264,-7.19424 0.13746,-7.27623 0.0829,-0.0612 0.43604,-0.0885 1.14524,-0.0885 0.85478,0 1.04696,0.0195 1.15491,0.1172 0.12476,0.1129 0.12951,0.72298 0.12951,16.64205 v 16.52485 l 4.19578,-0.0183 4.19577,-0.0183 z"
         id="path10834" />
      <path
         style="fill:#ffffff;fill-opacity:1;stroke:#ffffff;stroke-width:0.0100367;stroke-opacity:1"
         d="m 679.90212,100.70707 c -1.65974,-0.109 -3.25526,-0.65785 -4.6239,-1.59059 -0.76169,-0.519096 -1.48723,-1.202132 -2.06996,-1.948697 -0.18907,-0.242222 -0.55167,-0.782391 -0.70429,-1.049182 -1.40008,-2.447392 -1.60564,-5.353567 -0.56481,-7.985109 l 0.12429,-0.31424 h 0.40515 c 0.22283,0 0.40514,0.0042 0.40514,0.0093 0,0.0051 -0.0389,0.09476 -0.0865,0.199167 -0.42468,0.931644 -0.66994,1.903606 -0.74699,2.960374 -0.0262,0.359287 -0.0119,1.094783 0.0281,1.442934 0.17665,1.538111 0.72299,2.935786 1.61933,4.142668 0.50164,0.675429 1.21567,1.3738 1.89473,1.853168 1.17375,0.828583 2.47986,1.326071 3.94925,1.504251 0.27654,0.03353 0.41648,0.03962 0.91927,0.03999 0.64758,4.77e-4 0.87731,-0.01747 1.43997,-0.112485 1.70072,-0.287205 3.30036,-1.113272 4.52676,-2.337649 0.68552,-0.68439 1.19598,-1.395978 1.61931,-2.257351 0.98665,-2.007603 1.13785,-4.298305 0.42419,-6.426536 -0.0806,-0.240295 -0.25549,-0.676612 -0.34748,-0.866812 l -0.0688,-0.14221 0.402,-0.0048 c 0.2211,-0.0026 0.4076,0.0014 0.41445,0.0089 0.007,0.0075 0.0605,0.133118 0.11918,0.279174 0.3559,0.885586 0.57149,1.82074 0.64207,2.78518 0.0268,0.366271 0.0122,1.265488 -0.0261,1.604493 -0.27605,2.445818 -1.45573,4.626604 -3.32993,6.155758 -1.31351,1.071688 -2.95826,1.780374 -4.61182,1.987134 -0.54739,0.0684 -1.27349,0.0946 -1.75266,0.0631 z"
         id="path10873" />
      <path
         style="fill:#ffffff;fill-opacity:1;stroke:#ffffff;stroke-width:0.0141941;stroke-opacity:1"
         d="m 672.38275,87.797978 c -0.16213,-0.0046 -0.28167,-0.01842 -0.28167,-0.03256 0,-0.04689 0.32575,-0.674332 0.50255,-0.967983 0.63854,-1.060559 1.5744,-2.062934 2.58896,-2.772955 2.62757,-1.838872 6.02959,-2.176509 8.96764,-0.890002 0.67259,0.294513 1.46176,0.772675 2.0491,1.241565 0.34276,0.27363 1.13939,1.067667 1.39976,1.3952 0.43044,0.541472 0.75823,1.054775 1.0663,1.669733 0.0964,0.192494 0.17533,0.355772 0.17533,0.362841 0,0.0071 -0.17905,0.01285 -0.39788,0.01285 h -0.39789 l -0.16878,-0.306701 c -0.8267,-1.502257 -2.06499,-2.711745 -3.56712,-3.484158 -2.13393,-1.097296 -4.67144,-1.227697 -6.91556,-0.355388 -1.71711,0.667459 -3.17587,1.887152 -4.13736,3.4593 -0.11062,0.180881 -0.24056,0.408964 -0.28876,0.506851 l -0.0876,0.177977 -0.11266,-0.0043 c -0.062,-0.0024 -0.23942,-0.0079 -0.39433,-0.01228 z"
         id="path10912" />
      <path
         style="fill:#ffffff;fill-opacity:1;stroke:#ffffff;stroke-width:0.0141941;stroke-opacity:1"
         d="m 136.46322,107.63434 v -0.362 l 5.32659,-0.01 c 3.77003,-0.007 5.4034,-0.0183 5.58947,-0.0386 1.82303,-0.1989 3.20146,-0.58854 4.65176,-1.31492 1.28068,-0.64143 2.27827,-1.3575 3.29352,-2.3641 0.66378,-0.65813 1.13415,-1.2266 1.63037,-1.97041 1.25464,-1.880643 1.97562,-3.988529 2.1409,-6.259203 0.014,-0.192783 0.0256,-0.96736 0.0256,-1.721281 l 1e-4,-1.370767 h 0.37906 0.37907 l -0.0145,1.470914 c -0.017,1.720388 -0.0463,2.155007 -0.20832,3.085403 -0.56865,3.265294 -2.31454,6.202994 -4.9204,8.279214 -2.14094,1.7058 -4.78854,2.72651 -7.55321,2.91193 -0.24315,0.0163 -2.27778,0.0257 -5.55192,0.0257 h -5.16811 z"
         id="path10951" />
      <path
         style="fill:#ffffff;fill-opacity:1;stroke:#ffffff;stroke-width:0.0200735;stroke-opacity:1"
         d="m 59.75002,107.63855 v -0.37177 h 32.026011 32.026009 v 0.37177 0.37178 h -15.17208 c -10.091112,0 -15.172077,-0.0119 -15.172077,-0.0354 0,-0.022 -0.194741,-0.0354 -0.513408,-0.0354 -0.318666,0 -0.513407,0.0134 -0.513407,0.0354 0,0.0236 -5.470446,0.0354 -16.340524,0.0354 H 59.75002 Z"
         id="path10990" />
      <path
         style="fill:#ffffff;fill-opacity:1;stroke:#ffffff;stroke-width:0.0141941;stroke-opacity:1"
         d="m 123.81962,107.63332 v -0.36304 h 6.30928 6.30928 v 0.36304 0.36303 h -6.30928 -6.30928 z"
         id="path11029" />
      <path
         style="fill:#ffffff;fill-opacity:1;stroke:#ffffff;stroke-width:0.0141941;stroke-opacity:1"
         d="m 159.12155,84.787212 v -7.410901 h 0.37555 0.37555 v 7.410901 7.410901 h -0.37555 -0.37555 z"
         id="path11068" />
      <path
         style="fill:#ffffff;fill-opacity:1;stroke:#ffffff;stroke-width:0.040147;stroke-opacity:1"
         d="m 229.05059,247.56941 c -2.78586,-0.47714 -5.13615,-1.98545 -6.62187,-4.24963 -0.70718,-1.07772 -1.16618,-2.17355 -1.46231,-3.49124 -0.14798,-0.65845 -0.15552,-0.87452 -0.18239,-5.22954 l -0.028,-4.5427 0.35418,-0.0248 0.35417,-0.0249 0.0293,4.53214 c 0.025,3.85687 0.0466,4.61063 0.14514,5.05882 0.42736,1.94368 1.28317,3.50788 2.63446,4.81514 1.01681,0.98366 2.10335,1.64233 3.45509,2.09449 1.49228,0.49918 -2.05986,0.45896 40.56206,0.45927 34.17951,2.9e-4 38.56682,-0.0118 39.1252,-0.10771 1.94215,-0.33353 3.5695,-1.17085 4.95117,-2.54756 1.06062,-1.05681 1.72348,-2.12323 2.1933,-3.5286 0.47754,-1.4285 0.45972,-0.99171 0.45947,-11.26327 0,-10.20209 0.0131,-9.85692 -0.43227,-11.19269 -1.15496,-3.46415 -4.16836,-5.8594 -7.80375,-6.20293 -0.54932,-0.0519 -12.54201,-0.0681 -39.06806,-0.0528 l -38.27542,0.0221 -0.69001,0.15941 c -3.66242,0.84608 -6.25555,3.44065 -7.07531,7.07925 -0.14941,0.66316 -0.15652,0.86598 -0.1827,5.2116 l -0.0272,4.52158 -0.15505,-0.0416 c -0.0853,-0.0229 -0.24267,-0.042 -0.34978,-0.0425 l -0.19474,-9.7e-4 v -4.07464 c 0,-2.3754 0.0311,-4.36142 0.0747,-4.7623 0.47473,-4.37097 3.67807,-7.81123 8.03361,-8.62779 0.68692,-0.12878 1.87051,-0.13276 39.47927,-0.13276 h 38.77112 l 0.70815,0.15721 c 0.96839,0.21498 1.50507,0.39679 2.3389,0.79231 2.92895,1.38935 4.92503,4.04922 5.45195,7.265 0.0883,0.53866 0.10448,2.07989 0.10472,9.95471 0,10.33072 0.017,9.92447 -0.46695,11.38747 -0.63306,1.91386 -1.83524,3.59837 -3.4223,4.79537 -0.74387,0.56105 -2.22802,1.3081 -3.08572,1.55322 -1.44843,0.41394 1.42153,0.38709 -40.57691,0.37964 -31.08118,-0.006 -38.69747,-0.0245 -39.1252,-0.0978 z"
         id="path11107" />
      <path
         style="fill:#ffffff;fill-opacity:1;stroke:#ffffff;stroke-width:0.0200735;stroke-opacity:1"
         d="m 339.00834,213.11654 v -0.43651 l 0.57537,-0.28349 c 0.94474,-0.46547 1.86436,-0.75956 2.9169,-0.9328 l 0.49106,-0.0808 30.03434,-0.009 30.03435,-0.009 v 0.35428 0.35428 l -29.45012,8.4e-4 c -18.19749,5.2e-4 -29.68688,0.0137 -30.06976,0.0346 -1.56168,0.085 -2.99332,0.5132 -4.24003,1.26803 l -0.29211,0.17686 z"
         id="path11146" />
      <path
         style="fill:#ffffff;fill-opacity:1;stroke:#ffffff;stroke-width:0.040147;stroke-opacity:1"
         d="m 342.42515,247.5707 c -0.53278,-0.09 -1.42388,-0.31698 -1.78807,-0.45554 -0.1788,-0.068 -0.19474,-0.10498 -0.19474,-0.45124 v -0.37714 l 0.69044,0.22787 c 1.491,0.49209 -2.09374,0.4521 40.52379,0.4521 34.78191,0 38.56275,-0.0108 39.16583,-0.11205 0.77693,-0.13041 1.91625,-0.49253 2.55626,-0.81248 2.55621,-1.27789 4.38411,-3.72194 4.92462,-6.58461 0.11738,-0.62171 0.12649,-1.33571 0.12649,-9.91131 0,-8.7453 -0.007,-9.27935 -0.13309,-9.94949 -0.14712,-0.78276 -0.51259,-1.89919 -0.82308,-2.51426 -0.37907,-0.75093 -1.08145,-1.71479 -1.7013,-2.33464 -1.23072,-1.23072 -2.80613,-2.08932 -4.56968,-2.49047 l -0.70411,-0.16017 -8.69252,-0.0238 -8.69252,-0.0238 v -0.3543 -0.35431 l 8.72793,0.0242 c 8.68408,0.0241 8.73135,0.025 9.40886,0.17942 3.6224,0.82548 6.26342,3.16381 7.3875,6.5408 0.51737,1.55432 0.49139,1.01314 0.51953,10.82336 0.0171,5.96461 7.1e-4,9.10462 -0.0517,9.70735 -0.21952,2.53963 -1.1899,4.59696 -2.98923,6.33757 -1.31272,1.26987 -2.8497,2.08727 -4.80345,2.55458 -0.50259,0.12021 -1.5266,0.12814 -19.06689,0.14765 -12.48135,0.0139 -18.53579,-0.003 -18.53579,-0.0511 0,-0.0421 -0.21972,-0.0717 -0.53111,-0.0717 -0.30686,0 -0.53111,0.0299 -0.53111,0.0708 0,0.1145 -39.54136,0.0817 -40.22283,-0.0334 z"
         id="path11185" />
      <path
         style="fill:#ffffff;fill-opacity:1;stroke:#ffffff;stroke-width:0.0141941;stroke-opacity:1"
         d="m 334.31726,239.65876 c -0.0179,-0.0537 -0.0837,-0.51823 -0.11798,-0.83247 -0.0264,-0.24187 -0.0328,-2.06029 -0.0328,-9.32622 0,-8.50757 0.003,-9.04662 0.0446,-9.38881 0.0926,-0.75303 0.23494,-1.40253 0.44716,-2.0405 0.61196,-1.83963 1.74055,-3.4404 3.26965,-4.6376 0.2612,-0.20451 0.93264,-0.66497 1.01668,-0.69722 0.0376,-0.0144 0.0414,0.0239 0.0414,0.4098 v 0.42569 l -0.23298,0.16515 c -0.83895,0.59469 -1.65012,1.40553 -2.21372,2.21284 -0.73961,1.05943 -1.26622,2.31355 -1.49526,3.56095 -0.13365,0.72788 -0.12372,-0.009 -0.13266,9.83948 -0.009,9.7888 -0.0136,9.37991 0.11574,10.0961 l 0.0441,0.24411 h -0.37181 c -0.2752,0 -0.37452,-0.008 -0.38224,-0.0313 z"
         id="path11224" />
      <path
         style="fill:#ffffff;fill-opacity:1;stroke:#ffffff;stroke-width:0.0141941;stroke-opacity:1"
         d="m 340.37565,247.02513 c -0.0275,-0.0123 -0.2078,-0.0913 -0.40059,-0.17563 -0.81226,-0.35515 -1.62383,-0.8628 -2.35346,-1.47213 -0.30028,-0.25078 -0.95409,-0.90993 -1.19595,-1.20572 -0.80397,-0.98324 -1.36908,-2.00095 -1.76012,-3.16983 -0.12632,-0.37758 -0.28184,-0.95871 -0.32357,-1.20905 l -0.0183,-0.1101 0.0811,0.0162 c 0.0446,0.009 0.21279,0.0162 0.37377,0.0162 h 0.29271 l 0.0816,0.33174 c 0.5703,2.31765 2.02553,4.31732 4.05224,5.56827 0.32733,0.20204 1.11523,0.60957 1.17851,0.60957 0.0215,0 0.0297,0.0965 0.0297,0.34888 0,0.19189 0.011,0.37779 0.0244,0.41311 0.026,0.0684 0.0172,0.0739 -0.062,0.0385 z"
         id="path11263" />
      <path
         style="fill:#ffffff;fill-opacity:1;stroke:#ffffff;stroke-width:0.0200735;stroke-opacity:1"
         d="m 470.47608,135.96449 v -0.37178 h 32.02601 32.02601 v 0.37178 0.37178 h -32.02601 -32.02601 z"
         id="path11302" />
      <path
         style="fill:#ffffff;fill-opacity:1;stroke:#ffffff;stroke-width:0.0141941;stroke-opacity:1"
         d="m 466.03548,136.32107 c -1.45477,-0.0726 -3.05302,-0.53957 -4.30665,-1.25815 -2.86027,-1.63952 -4.68882,-4.51998 -4.94326,-7.78696 -0.0168,-0.21582 -0.0262,-1.81793 -0.0262,-4.46153 v -4.12478 l 0.36207,-0.008 0.36206,-0.008 0.009,4.25626 c 0.009,4.69671 0.002,4.47636 0.17086,5.33844 0.27258,1.39445 0.87377,2.71545 1.74458,3.83335 1.51897,1.95 3.75225,3.18641 6.22442,3.44603 0.29853,0.0314 0.76883,0.0383 2.59364,0.0383 h 2.22899 v 0.37555 0.37556 l -2.13439,-0.005 c -1.17391,-0.003 -2.20198,-0.008 -2.28461,-0.0122 z"
         id="path11341" />
      <path
         style="fill:#ffffff;fill-opacity:1;stroke:#ffffff;stroke-width:0.0200735;stroke-opacity:1"
         d="m 456.77341,113.36465 c 0,-4.62888 1.8e-4,-4.63393 0.19628,-5.58447 0.16719,-0.8104 0.4192,-1.53474 0.81305,-2.33689 0.89028,-1.81319 2.40115,-3.36674 4.19556,-4.31407 0.93061,-0.4913 1.99999,-0.84398 3.15126,-1.03927 0.35311,-0.0599 1.39098,-0.0636 20.66908,-0.0727 l 20.29731,-0.01 v 0.35435 0.35434 h -19.87419 c -13.77964,0 -20.02023,0.0116 -20.35042,0.0378 -4.18917,0.33284 -7.57514,3.43684 -8.26284,7.57476 -0.11301,0.67997 -0.12582,1.21206 -0.12638,5.24915 l -5.6e-4,4.063 h -0.35407 -0.35408 z"
         id="path11380" />
      <path
         style="fill:#ffffff;fill-opacity:1;stroke:#ffffff;stroke-width:0.0283882;stroke-opacity:1"
         d="m 551.03551,113.62418 c 0,-4.2371 -0.0179,-4.73174 -0.20551,-5.66539 -0.22592,-1.12453 -0.82064,-2.49606 -1.48542,-3.42566 -1.46752,-2.05209 -3.72537,-3.40356 -6.23579,-3.73254 -0.52381,-0.0686 -2.65807,-0.0774 -18.79014,-0.0774 h -18.19921 v -0.37555 -0.375553 l 17.78867,0.0016 c 10.17708,8.98e-4 18.12077,0.02123 18.5648,0.04752 2.25888,0.13374 4.20646,0.92246 5.92374,2.39895 1.45457,1.25063 2.59851,3.12607 3.05768,5.01293 0.2711,1.11401 0.28221,1.34879 0.28221,5.96133 v 4.2537 h -0.25366 c -0.13951,0 -0.29725,0.0233 -0.35052,0.0518 -0.0954,0.0511 -0.0968,-0.0104 -0.0968,-4.0757 z"
         id="path11419" />
      <path
         style="fill:#ffffff;fill-opacity:1;stroke:#ffffff;stroke-width:0.0283882;stroke-opacity:1"
         d="m 534.56128,135.97759 v -0.3531 l 3.743,-7.9e-4 c 2.05866,-4.5e-4 4.00932,-0.0229 4.33481,-0.0498 4.44885,-0.36861 7.89193,-3.75415 8.34377,-8.20432 0.0322,-0.31717 0.0527,-2.12297 0.0527,-4.64969 0,-3.91509 0.005,-4.1292 0.0876,-4.0942 0.0482,0.0203 0.20593,0.0481 0.35051,0.0616 l 0.26289,0.0247 v 4.2475 c 0,3.48816 -0.0134,4.34996 -0.0751,4.82067 -0.5031,3.83792 -3.17813,7.00227 -6.86441,8.12007 -1.31577,0.39898 -1.18136,0.38972 -5.96693,0.41125 l -4.26878,0.0192 z"
         id="path11458" />
      <path
         style="fill:#ffffff;fill-opacity:1;stroke:#ffffff;stroke-width:0.00709705;stroke-opacity:1"
         d="m 27.308918,82.609008 v -7.317012 h 0.369293 0.369294 v 7.317012 7.317013 h -0.369294 -0.369293 z"
         id="path11497" />
      <path
         style="fill:#ffffff;fill-opacity:1;stroke:#ffffff;stroke-width:0.0100367;stroke-opacity:1"
         d="m 40.320199,107.98988 c -1.0088,-0.0523 -1.84153,-0.17154 -2.71752,-0.38909 -5.192609,-1.28956 -9.129717,-5.48987 -10.080435,-10.754318 -0.119746,-0.663073 -0.214213,-1.604848 -0.214262,-2.136051 l -10e-6,-0.110649 h 0.371778 0.371778 l 6.2e-5,0.154908 c 8.3e-5,0.203438 0.02863,0.655195 0.06237,0.986982 0.497927,4.896218 3.758454,9.076188 8.386938,10.751988 1.174981,0.42541 2.378094,0.67131 3.651112,0.74622 0.192196,0.0113 3.037734,0.0178 7.873725,0.0179 l 7.572762,1.7e-4 v 0.37178 0.37178 l -7.590465,-0.003 c -4.174756,-0.002 -7.634283,-0.006 -7.687836,-0.008 z"
         id="path11536" />
      <path
         style="fill:#ffffff;fill-opacity:1;stroke:#ffffff;stroke-width:0.040147;stroke-opacity:1"
         d="m 55.625056,107.63855 v -0.38948 h 2.05363 2.05363 v 0.38948 0.38949 h -2.05363 -2.05363 z"
         id="path11575" />
      <path
         style="fill:#ffffff;fill-opacity:1;stroke:#ffffff;stroke-width:0.040147;stroke-opacity:1"
         d="m 27.29912,92.271734 v -2.301482 h 0.354074 0.354075 v 2.301482 2.301483 H 27.653194 27.29912 Z"
         id="path11614" />
      <path
         style="fill:#ffffff;fill-opacity:1;stroke:#ffffff;stroke-width:0.0141941;stroke-opacity:1"
         d="m 27.309552,72.725721 c 0.01131,-2.709875 0.01481,-2.798723 0.144961,-3.674154 0.334103,-2.247335 1.227811,-4.384677 2.584835,-6.181742 0.402841,-0.533469 0.717665,-0.892655 1.243054,-1.418211 1.101612,-1.101962 2.179453,-1.876481 3.56886,-2.564525 1.647208,-0.815708 3.374685,-1.275873 5.212952,-1.388624 0.291586,-0.01788 4.142923,-0.02643 11.91127,-0.02643 h 11.480352 v 0.363034 0.363034 l -11.235276,6.13e-4 c -6.535029,3.58e-4 -11.47618,0.01041 -11.811122,0.02404 -1.539828,0.06263 -2.877817,0.341828 -4.281298,0.893372 -0.444468,0.174668 -1.255097,0.568405 -1.691375,0.821531 -2.74989,1.595467 -4.801507,4.144536 -5.779517,7.180867 -0.248465,0.771383 -0.437937,1.657958 -0.544806,2.54924 -0.03771,0.314526 -0.04433,0.693041 -0.05211,2.982848 l -0.0089,2.622607 h -0.376246 -0.376245 z"
         id="path11653" />
      <path
         style="fill:#ffffff;fill-opacity:1;stroke:#ffffff;stroke-width:0.0200735;stroke-opacity:1"
         d="m 63.467799,57.838019 v -0.354074 h 19.509488 19.509483 v 0.354074 0.354074 H 82.977287 63.467799 Z"
         id="path11692" />
      <path
         style="fill:#ffffff;fill-opacity:1;stroke:#ffffff;stroke-width:0.0200735;stroke-opacity:1"
         d="m 159.12787,73.709395 c -0.0159,-3.736516 -0.0196,-3.839534 -0.16958,-4.753446 -0.2772,-1.68911 -0.89886,-3.32585 -1.81551,-4.780002 -1.22084,-1.936684 -2.96566,-3.525935 -5.00772,-4.561239 -1.64925,-0.836152 -3.27818,-1.275623 -5.14116,-1.387041 -0.37192,-0.02224 -7.83794,-0.03505 -20.54515,-0.03526 l -19.96094,-3.17e-4 v -0.354074 -0.354074 h 20.26506 c 17.64072,0 20.33605,0.0068 20.81322,0.05251 1.89756,0.181784 3.7006,0.738946 5.32315,1.644922 1.86881,1.043485 3.49844,2.544258 4.67366,4.304123 1.19553,1.790285 1.86771,3.593452 2.20423,5.913039 0.0482,0.33233 0.0584,0.944109 0.0697,4.169223 l 0.0132,3.779742 h -0.35335 -0.35334 z"
         id="path11731" />
      <path
         style="fill:#ffffff;fill-opacity:1;stroke:#ffffff;stroke-width:0.0141941;stroke-opacity:1"
         d="m 102.51329,57.835069 v -0.363034 h 1.9779 1.97791 v 0.363034 0.363034 h -1.97791 -1.9779 z"
         id="path11770" />
      <path
         style="fill:#ffffff;fill-opacity:1;stroke:#ffffff;stroke-width:0.040147;stroke-opacity:1"
         d="m 259.00527,304.36218 v -0.74356 h 64.05202 64.05202 v 0.74356 0.74355 h -64.05202 -64.05202 z"
         id="path11809" />
      <path
         style="fill:#ffffff;fill-opacity:1;stroke:#ffffff;stroke-width:0.080294;stroke-opacity:1"
         d="m 0.38558767,304.92066 -0.31477283,-0.22047 v -64.5751 -64.57511 H 0.77896322 1.4871116 v 64.01662 64.01661 H 107.56774 213.64837 v 0.77897 0.77896 H 107.17436 c -96.138059,0 -106.50455598,-0.0214 -106.78877233,-0.22048 z"
         id="path11848" />
      <path
         style="fill:#ffffff;fill-opacity:1;stroke:#ffffff;stroke-width:0.0567764;stroke-opacity:1"
         d="M 0.05007365,110.36233 V 51.82623 H 0.75110479 1.4521359 v 58.5361 58.5361 H 0.75110479 0.05007365 Z"
         id="path11887" />
      <path
         style="fill:#ffffff;fill-opacity:1;stroke:#ffffff;stroke-width:0.0283882;stroke-opacity:1"
         d="m 0.02503683,172.22833 v -3.25479 H 0.75110479 1.4771727 v 3.25479 3.25478 H 0.75110479 0.02503683 Z"
         id="path11926" />
      <path
         style="fill:#ffffff;fill-opacity:1;stroke:#ffffff;stroke-width:0.0567764;stroke-opacity:1"
         d="m 0.05007365,26.088373 c 0,-25.50418039 0.0010432,-25.63875333 0.20029461,-25.83800474 C 0.45029778,0.05043874 0.58419261,0.05007365 73.708416,0.05007365 H 146.96617 V 0.7510362 1.4519987 L 74.23419,1.4771041 1.5022096,1.5022096 1.476976,26.614146 1.4517424,51.726083 H 0.75090805 0.05007365 Z"
         id="path11965" />
      <path
         style="fill:#ffffff;fill-opacity:1;stroke:#ffffff;stroke-width:0.160588;stroke-opacity:1"
         d="m 306.40164,39.174769 c -0.25749,-0.257489 -0.33991,-4.859473 -0.33991,-18.978377 V 1.5579264 H 226.60748 147.15323 V 0.84977806 0.14162968 h 80.16039 80.16039 l 0.0728,18.90756232 0.0728,18.907561 38.02757,0.07184 38.02756,0.07184 v 0.70712 0.707123 h -38.46662 c -29.5408,0 -38.54549,-0.07887 -38.80653,-0.339911 z"
         id="path12004" />
      <path
         style="fill:#ffffff;fill-opacity:1;stroke:#ffffff;stroke-width:0.113553;stroke-opacity:1"
         d="m 612.3512,78.565561 -0.0506,-39.107523 -114.218,-0.05025 -114.218,-0.05025 v -0.700857 -0.700856 h 114.72875 c 88.96642,0 114.78273,0.05397 114.96911,0.240353 0.18531,0.185322 0.24035,9.311474 0.24035,39.858627 v 39.618275 h -0.70053 -0.70053 z"
         id="path12043" />
      <path
         style="fill:#ffffff;fill-opacity:1;stroke:#ffffff;stroke-width:0.0567764;stroke-opacity:1"
         d="m 450.01191,304.34766 v -0.75111 h 81.11932 81.11932 v -38.25627 -38.25627 h 0.7511 0.75111 v 38.79982 38.79981 l -0.26388,0.20756 -0.26387,0.20756 h -81.60655 -81.60655 z"
         id="path12082" />
      <path
         style="fill:#ffffff;fill-opacity:1;stroke:#ffffff;stroke-width:0.040147;stroke-opacity:1"
         d="m 387.18013,304.36218 v -0.74356 h 31.37097 31.37098 v 0.74356 0.74355 H 418.5511 387.18013 Z"
         id="path12121" />
      <path
         style="fill:#ffffff;fill-opacity:1;stroke:#ffffff;stroke-width:0.040147;stroke-opacity:1"
         d="m 612.3005,174.98347 v -41.39128 h 0.74356 0.74355 v 41.39128 41.39127 h -0.74355 -0.74356 z"
         id="path12160" />
      <path
         style="fill:#ffffff;fill-opacity:1;stroke:#ffffff;stroke-width:0.040147;stroke-opacity:1"
         d="m 612.3005,221.72126 v -5.27571 h 0.74356 0.74355 v 5.27571 5.2757 h -0.74355 -0.74356 z"
         id="path12199" />
      <path
         style="fill:#ffffff;fill-opacity:1;stroke:#ffffff;stroke-width:0.040147;stroke-opacity:1"
         d="m 612.3005,126.12123 v -7.40015 h 0.74356 0.74355 v 7.40015 7.40015 h -0.74355 -0.74356 z"
         id="path12238" />
      <path
         style="fill:#ffffff;fill-opacity:1;stroke:#ffffff;stroke-width:0.040147;stroke-opacity:1"
         d="m 213.75459,304.36218 v -0.74356 h 22.58993 22.58994 v 0.74356 0.74355 h -22.58994 -22.58993 z"
         id="path12277" />
    </g>
  </g>
</svg>
