<?xml version="1.0" encoding="UTF-8" standalone="no"?>
<svg
   xmlns:dc="http://purl.org/dc/elements/1.1/"
   xmlns:cc="http://creativecommons.org/ns#"
   xmlns:rdf="http://www.w3.org/1999/02/22-rdf-syntax-ns#"
   xmlns:svg="http://www.w3.org/2000/svg"
   xmlns="http://www.w3.org/2000/svg"
   xmlns:sodipodi="http://sodipodi.sourceforge.net/DTD/sodipodi-0.dtd"
   xmlns:inkscape="http://www.inkscape.org/namespaces/inkscape"
   version="1.1"
   width="698.10687"
   height="305.1116"
   id="svg958"
   viewBox="0 0 698.10687 305.1116"
   sodipodi:docname="diagram.svg"
   inkscape:version="1.0 (4035a4fb49, 2020-05-01)">
  <metadata
     id="metadata964">
    <rdf:RDF>
      <cc:Work
         rdf:about="">
        <dc:format>image/svg+xml</dc:format>
        <dc:type
           rdf:resource="http://purl.org/dc/dcmitype/StillImage" />
        <dc:title></dc:title>
      </cc:Work>
    </rdf:RDF>
  </metadata>
  <defs
     id="defs962">
    <marker
       inkscape:stockid="Arrow1Mend"
       orient="auto"
       refY="0"
       refX="0"
       id="marker1643"
       style="overflow:visible"
       inkscape:isstock="true">
      <path
         id="path1641"
         d="M 0,0 5,-5 -12.5,0 5,5 Z"
         style="fill:#000000;fill-opacity:1;fill-rule:evenodd;stroke:#000000;stroke-width:1pt;stroke-opacity:1"
         transform="matrix(-0.4,0,0,-0.4,-4,0)" />
    </marker>
    <marker
       inkscape:collect="always"
       inkscape:isstock="true"
       style="overflow:visible"
       id="marker1559"
       refX="0"
       refY="0"
       orient="auto"
       inkscape:stockid="Arrow1Mend">
      <path
         transform="matrix(-0.4,0,0,-0.4,-4,0)"
         style="fill:#000000;fill-opacity:1;fill-rule:evenodd;stroke:#000000;stroke-width:1pt;stroke-opacity:1"
         d="M 0,0 5,-5 -12.5,0 5,5 Z"
         id="path1557" />
    </marker>
    <marker
       inkscape:stockid="Arrow1Mend"
       orient="auto"
       refY="0"
       refX="0"
       id="marker1447"
       style="overflow:visible"
       inkscape:isstock="true">
      <path
         id="path1445"
         d="M 0,0 5,-5 -12.5,0 5,5 Z"
         style="fill:#000000;fill-opacity:1;fill-rule:evenodd;stroke:#000000;stroke-width:1pt;stroke-opacity:1"
         transform="matrix(-0.4,0,0,-0.4,-4,0)" />
    </marker>
    <marker
       inkscape:stockid="Arrow1Mend"
       orient="auto"
       refY="0"
       refX="0"
       id="marker1389"
       style="overflow:visible"
       inkscape:isstock="true">
      <path
         id="path1387"
         d="M 0,0 5,-5 -12.5,0 5,5 Z"
         style="fill:#000000;fill-opacity:1;fill-rule:evenodd;stroke:#000000;stroke-width:1pt;stroke-opacity:1"
         transform="matrix(-0.4,0,0,-0.4,-4,0)" />
    </marker>
    <marker
       inkscape:collect="always"
       inkscape:stockid="Arrow1Mend"
       orient="auto"
       refY="0"
       refX="0"
       id="marker1325"
       style="overflow:visible"
       inkscape:isstock="true">
      <path
         id="path1323"
         d="M 0,0 5,-5 -12.5,0 5,5 Z"
         style="fill:#000000;fill-opacity:1;fill-rule:evenodd;stroke:#000000;stroke-width:1pt;stroke-opacity:1"
         transform="matrix(-0.4,0,0,-0.4,-4,0)" />
    </marker>
    <marker
       inkscape:isstock="true"
       style="overflow:visible"
       id="Arrow1Mstart"
       refX="0"
       refY="0"
       orient="auto"
       inkscape:stockid="Arrow1Mstart">
      <path
         transform="matrix(0.4,0,0,0.4,4,0)"
         style="fill:#000000;fill-opacity:1;fill-rule:evenodd;stroke:#000000;stroke-width:1pt;stroke-opacity:1"
         d="M 0,0 5,-5 -12.5,0 5,5 Z"
         id="path938" />
    </marker>
    <marker
       inkscape:collect="always"
       inkscape:isstock="true"
       style="overflow:visible"
       id="marker1253"
       refX="0"
       refY="0"
       orient="auto"
       inkscape:stockid="Arrow1Mend">
      <path
         transform="matrix(-0.4,0,0,-0.4,-4,0)"
         style="fill:#000000;fill-opacity:1;fill-rule:evenodd;stroke:#000000;stroke-width:1pt;stroke-opacity:1"
         d="M 0,0 5,-5 -12.5,0 5,5 Z"
         id="path1251" />
    </marker>
    <marker
       inkscape:collect="always"
       inkscape:isstock="true"
       style="overflow:visible"
       id="marker1231"
       refX="0"
       refY="0"
       orient="auto"
       inkscape:stockid="Arrow1Mend">
      <path
         transform="matrix(-0.4,0,0,-0.4,-4,0)"
         style="fill:#000000;fill-opacity:1;fill-rule:evenodd;stroke:#000000;stroke-width:1pt;stroke-opacity:1"
         d="M 0,0 5,-5 -12.5,0 5,5 Z"
         id="path1229" />
    </marker>
    <marker
       inkscape:collect="always"
       inkscape:isstock="true"
       style="overflow:visible"
       id="Arrow1Mend"
       refX="0"
       refY="0"
       orient="auto"
       inkscape:stockid="Arrow1Mend">
      <path
         transform="matrix(-0.4,0,0,-0.4,-4,0)"
         style="fill:#000000;fill-opacity:1;fill-rule:evenodd;stroke:#000000;stroke-width:1pt;stroke-opacity:1"
         d="M 0,0 5,-5 -12.5,0 5,5 Z"
         id="path941" />
    </marker>
    <marker
       inkscape:isstock="true"
       style="overflow:visible"
       id="Arrow1Lstart"
       refX="0"
       refY="0"
       orient="auto"
       inkscape:stockid="Arrow1Lstart">
      <path
         transform="matrix(0.8,0,0,0.8,10,0)"
         style="fill:#000000;fill-opacity:1;fill-rule:evenodd;stroke:#000000;stroke-width:1pt;stroke-opacity:1"
         d="M 0,0 5,-5 -12.5,0 5,5 Z"
         id="path1194" />
    </marker>
  </defs>
  <sodipodi:namedview
     inkscape:document-rotation="0"
     pagecolor="#ffffff"
     bordercolor="#666666"
     borderopacity="1"
     objecttolerance="10"
     gridtolerance="10"
     guidetolerance="10"
     inkscape:pageopacity="0"
     inkscape:pageshadow="2"
     inkscape:window-width="1920"
     inkscape:window-height="1017"
     id="namedview960"
     showgrid="false"
     fit-margin-top="0"
     fit-margin-left="0"
     fit-margin-right="0"
     fit-margin-bottom="0"
     inkscape:zoom="1.2481614"
     inkscape:cx="214.39901"
     inkscape:cy="90.896842"
     inkscape:window-x="-8"
     inkscape:window-y="-8"
     inkscape:window-maximized="1"
     inkscape:current-layer="Layer1001" />
  <g
     id="Layer1000"
     transform="translate(-81.4547,-45.313)" />
  <g
     id="g1038"
     transform="translate(-81.4547,-45.313)">
    <g
       transform="translate(0,32.291566)"
       id="Layer1014" />
    <g
       id="g2165">
      <path
         d="M 82.2047,84.0145 V 349.6746 H 694.4882 V 84.0145 H 388.3464 V 46.063 H 82.2047 Z"
         style="fill:none;stroke:#000000;stroke-width:1.5;stroke-linecap:round;stroke-linejoin:round;stroke-miterlimit:4;stroke-dasharray:none"
         id="path837" />
      <g
         id="Layer1001"
         transform="translate(0,32.291566)">
        <g
           id="Layer1002">
          <path
             d="m 122.315,120.6496 h 105.4488 a 13.1809,13.1809 0 0 0 13.1811,-13.1811 V 84.0473 A 13.1809,13.1809 0 0 0 227.7638,70.8662 H 122.315 a 13.1809,13.1809 0 0 0 -13.1811,13.1811 v 23.4212 a 13.1809,13.1809 0 0 0 13.1811,13.1811 z"
             style="fill:#4672c4;fill-rule:evenodd;stroke-width:0.75;stroke-linecap:round;stroke-linejoin:round"
             id="path844" />
          <path
             d="m 122.315,120.6496 h 105.4488 a 13.1809,13.1809 0 0 0 13.1811,-13.1811 V 84.0473 A 13.1809,13.1809 0 0 0 227.7638,70.8662 H 122.315 a 13.1809,13.1809 0 0 0 -13.1811,13.1811 v 23.4212 a 13.1809,13.1809 0 0 0 13.1811,13.1811 z"
             style="fill:none;stroke:#000000;stroke-width:0.75;stroke-linecap:round;stroke-linejoin:round;stroke-dasharray:none"
             id="path846" />
        </g>
        <text
           x="134.66162"
           y="90.659225"
           id="text851"
           style="font-style:normal;font-variant:normal;font-weight:normal;font-stretch:normal;font-size:12px;font-family:Consolas;-inkscape-font-specification:'Consolas, Normal';font-variant-ligatures:normal;font-variant-caps:normal;font-variant-numeric:normal;font-variant-east-asian:normal"><tspan
             sodipodi:role="line"
             id="tspan926"
             x="134.66162"
             y="90.659225"><tspan
               font-family="Calibri"
               font-size="10px"
               fill="#000000"
               fill-opacity="1"
               stroke-opacity="1"
               id="tspan849"
               style="font-style:normal;font-variant:normal;font-weight:normal;font-stretch:normal;font-size:12px;font-family:Consolas;-inkscape-font-specification:'Consolas, Normal';font-variant-ligatures:normal;font-variant-caps:normal;font-variant-numeric:normal;font-variant-east-asian:normal">Climate Data</tspan></tspan><tspan
             sodipodi:role="line"
             id="tspan928"
             x="134.66162"
             y="105.65923"><tspan
               font-family="Calibri"
               font-size="10px"
               fill="#000000"
               fill-opacity="1"
               stroke-opacity="1"
               style="font-style:normal;font-variant:normal;font-weight:normal;font-stretch:normal;font-size:12px;font-family:Consolas;-inkscape-font-specification:'Consolas, Normal';font-variant-ligatures:normal;font-variant-caps:normal;font-variant-numeric:normal;font-variant-east-asian:normal"
               id="tspan930">Importer</tspan></tspan></text>
      </g>
      <g
         id="Layer1003"
         transform="translate(0,32.291566)">
        <path
           d="m 175.0394,121.197 v 75.57461"
           style="fill:none;stroke:#000000;stroke-width:0.969363;stroke-linecap:round;stroke-linejoin:round;stroke-miterlimit:4;stroke-dasharray:none;marker-end:url(#Arrow1Mend)"
           id="path854" />
        <g
           id="g1922"
           transform="translate(-6.8100166,-218.32112)">
          <g
             transform="translate(-0.801178,-32.291566)"
             id="g1812">
            <rect
               style="opacity:1;fill:#ffffff;fill-opacity:1;stroke-width:1.6696;stroke-miterlimit:4;stroke-dasharray:none"
               id="rect1797"
               width="76.709801"
               height="19.593494"
               x="143.58023"
               y="397.49609" />
          </g>
          <text
             style="font-style:normal;font-variant:normal;font-weight:normal;font-stretch:normal;font-size:10.6667px;font-family:Consolas;-inkscape-font-specification:'Consolas, Normal';font-variant-ligatures:normal;font-variant-caps:normal;font-variant-numeric:normal;font-variant-east-asian:normal"
             id="text858"
             y="378.14737"
             x="150.35094"><tspan
               style="font-style:normal;font-variant:normal;font-weight:normal;font-stretch:normal;font-size:10.6667px;font-family:Consolas;-inkscape-font-specification:'Consolas, Normal';font-variant-ligatures:normal;font-variant-caps:normal;font-variant-numeric:normal;font-variant-east-asian:normal"
               id="tspan856"
               stroke-opacity="1"
               fill-opacity="1"
               fill="#000000"
               font-size="11px"
               font-family="Calibri">Writes data</tspan></text>
        </g>
        <text
           id="text916"
           y="35.970093"
           x="107.29552"><tspan
             style="font-style:normal;font-variant:normal;font-weight:normal;font-stretch:normal;font-size:18.6667px;font-family:Consolas;-inkscape-font-specification:'Consolas, Normal';font-variant-ligatures:normal;font-variant-caps:normal;font-variant-numeric:normal;font-variant-east-asian:normal"
             id="tspan914"
             stroke-opacity="1"
             fill-opacity="1"
             fill="#000000"
             font-size="11px"
             font-family="Calibri">Docker Network</tspan></text>
      </g>
      <g
         id="Layer1004"
         style="fill:#aa4400"
         transform="translate(0,32.291566)">
        <g
           id="Layer1005"
           style="fill:#aa4400">
          <path
             d="m 136.063,206.408 v 72.2835 a 38.9764,7.7953 0 0 0 77.9527,0 V 206.408 a 38.9764,7.7953 0 0 0 -77.9527,0 z"
             style="fill:#aa4400;fill-rule:evenodd;stroke-width:0.25;stroke-linecap:round;stroke-linejoin:round"
             id="path861" />
          <path
             d="m 136.063,206.408 v 72.2835 a 38.9764,7.7953 0 0 0 77.9527,0 V 206.408 a 38.9764,7.7953 0 0 0 -77.9527,0 z m 0,0 a 38.9764,7.7953 0 1 0 77.9527,0 m -77.9527,3.8977 a 38.9764,7.7953 0 1 0 77.9527,0 m -77.9527,3.8976 a 38.9764,7.7953 0 0 0 77.9527,0"
             style="fill:#aa4400;stroke:#c8c8c8;stroke-width:0.25;stroke-linecap:round;stroke-linejoin:round;stroke-dasharray:none"
             id="path863" />
        </g>
        <text
           x="150.52641"
           y="244.61189"
           id="text868"
           style="font-style:normal;font-variant:normal;font-weight:normal;font-stretch:normal;font-size:12px;font-family:Consolas;-inkscape-font-specification:'Consolas, Normal';font-variant-ligatures:normal;font-variant-caps:normal;font-variant-numeric:normal;font-variant-east-asian:normal;fill:#000000;fill-opacity:1"><tspan
             font-family="Calibri"
             font-size="11px"
             fill="#000000"
             fill-opacity="1"
             stroke-opacity="1"
             id="tspan866"
             style="font-style:normal;font-variant:normal;font-weight:normal;font-stretch:normal;font-size:12px;font-family:Consolas;-inkscape-font-specification:'Consolas, Normal';font-variant-ligatures:normal;font-variant-caps:normal;font-variant-numeric:normal;font-variant-east-asian:normal;fill:#000000;fill-opacity:1">InfluxDB</tspan></text>
      </g>
      <g
         id="Layer1006"
         transform="translate(0,32.291566)">
        <g
           id="Layer1007">
          <path
             d="m 312.0236,260.3487 h 75.4016 a 9.425,9.425 0 0 0 9.4252,-9.4252 V 234.176 a 9.425,9.425 0 0 0 -9.4252,-9.4251 h -75.4016 a 9.425,9.425 0 0 0 -9.4252,9.4251 v 16.7475 a 9.425,9.425 0 0 0 9.4252,9.4252 z"
             style="fill:#4672c4;fill-rule:evenodd;stroke-width:0.75;stroke-linecap:round;stroke-linejoin:round"
             id="path871" />
          <path
             d="m 312.0236,260.3487 h 75.4016 a 9.425,9.425 0 0 0 9.4252,-9.4252 V 234.176 a 9.425,9.425 0 0 0 -9.4252,-9.4251 h -75.4016 a 9.425,9.425 0 0 0 -9.4252,9.4251 v 16.7475 a 9.425,9.425 0 0 0 9.4252,9.4252 z"
             style="fill:none;stroke:#000000;stroke-width:0.75;stroke-linecap:round;stroke-linejoin:round;stroke-dasharray:none"
             id="path873" />
        </g>
        <text
           x="325.62637"
           y="242.5498"
           id="text878"><tspan
             font-family="Calibri"
             font-size="10px"
             fill="#000000"
             fill-opacity="1"
             stroke-opacity="1"
             id="tspan876"
             style="font-style:normal;font-variant:normal;font-weight:normal;font-stretch:normal;font-size:12px;font-family:Consolas;-inkscape-font-specification:'Consolas, Normal';font-variant-ligatures:normal;font-variant-caps:normal;font-variant-numeric:normal;font-variant-east-asian:normal">Grafana</tspan></text>
      </g>
      <g
         id="Layer1008"
         transform="translate(0,32.291566)">
        <path
           d="M 302.5984,242.5498 H 214.0157"
           style="fill:none;stroke:#000000;stroke-width:1;stroke-linecap:round;stroke-linejoin:round;stroke-miterlimit:4;stroke-dasharray:none;marker-end:url(#marker1325)"
           id="path881" />
        <text
           x="226.90895"
           y="239.1507"
           id="text885"
           style="font-style:normal;font-variant:normal;font-weight:normal;font-stretch:normal;font-size:10.6667px;font-family:Consolas;-inkscape-font-specification:'Consolas, Normal';font-variant-ligatures:normal;font-variant-caps:normal;font-variant-numeric:normal;font-variant-east-asian:normal"><tspan
             font-family="Calibri"
             font-size="11px"
             fill="#000000"
             fill-opacity="1"
             stroke-opacity="1"
             id="tspan883"
             style="font-style:normal;font-variant:normal;font-weight:normal;font-stretch:normal;font-size:10.6667px;font-family:Consolas;-inkscape-font-specification:'Consolas, Normal';font-variant-ligatures:normal;font-variant-caps:normal;font-variant-numeric:normal;font-variant-east-asian:normal">Fetches data</tspan></text>
      </g>
      <g
         id="Layer1009"
         transform="translate(0,32.291566)">
        <g
           id="Layer1010">
          <path
             d="m 425.4094,260.3487 h 75.4016 a 9.425,9.425 0 0 0 9.4252,-9.4252 V 234.176 a 9.425,9.425 0 0 0 -9.4252,-9.4251 h -75.4016 a 9.425,9.425 0 0 0 -9.4252,9.4251 v 16.7475 a 9.425,9.425 0 0 0 9.4252,9.4252 z"
             style="fill:#4672c4;fill-rule:evenodd;stroke-width:0.75;stroke-linecap:round;stroke-linejoin:round"
             id="path888" />
          <path
             d="m 425.4094,260.3487 h 75.4016 a 9.425,9.425 0 0 0 9.4252,-9.4252 V 234.176 a 9.425,9.425 0 0 0 -9.4252,-9.4251 h -75.4016 a 9.425,9.425 0 0 0 -9.4252,9.4251 v 16.7475 a 9.425,9.425 0 0 0 9.4252,9.4252 z"
             style="fill:none;stroke:#000000;stroke-width:0.75;stroke-linecap:round;stroke-linejoin:round;stroke-dasharray:none"
             id="path890" />
        </g>
        <text
           x="433.00333"
           y="242.5498"
           id="text895"><tspan
             font-family="Calibri"
             font-size="10px"
             fill="#000000"
             fill-opacity="1"
             stroke-opacity="1"
             id="tspan893"
             style="font-style:normal;font-variant:normal;font-weight:normal;font-stretch:normal;font-size:12px;font-family:Consolas;-inkscape-font-specification:'Consolas, Normal';font-variant-ligatures:normal;font-variant-caps:normal;font-variant-numeric:normal;font-variant-east-asian:normal">Flask App</tspan></text>
      </g>
      <g
         id="Layer1011"
         transform="translate(0,32.291566)">
        <path
           d="m 463.1102,261.48174 v 38.8101 H 175.0394 v -12.672"
           style="fill:none;stroke:#000000;stroke-width:1;stroke-linecap:round;stroke-linejoin:round;stroke-miterlimit:4;stroke-dasharray:none;marker-end:url(#marker1253)"
           id="path898" />
        <text
           x="278.65152"
           y="297.45926"
           id="text902"
           style="font-style:normal;font-variant:normal;font-weight:normal;font-stretch:normal;font-size:10.6667px;font-family:Consolas;-inkscape-font-specification:'Consolas, Normal';font-variant-ligatures:normal;font-variant-caps:normal;font-variant-numeric:normal;font-variant-east-asian:normal"><tspan
             font-family="Calibri"
             font-size="11px"
             fill="#000000"
             fill-opacity="1"
             stroke-opacity="1"
             id="tspan900"
             style="font-style:normal;font-variant:normal;font-weight:normal;font-stretch:normal;font-size:10.6667px;font-family:Consolas;-inkscape-font-specification:'Consolas, Normal';font-variant-ligatures:normal;font-variant-caps:normal;font-variant-numeric:normal;font-variant-east-asian:normal">Fetches data</tspan></text>
      </g>
      <path
         style="fill:none;stroke:#000000;stroke-width:1px;stroke-linecap:butt;stroke-linejoin:miter;stroke-opacity:1;marker-end:url(#marker1559)"
         d="M 609.80628,257.53097 V 182.62078"
         id="path1549" />
      <g
         id="Layer1012"
         transform="translate(0,32.291566)">
        <g
           id="Layer1013">
          <path
             d="m 548.0079,148.9837 h 75.4015 a 9.425,9.425 0 0 0 9.4252,-9.4252 V 122.811 a 9.425,9.425 0 0 0 -9.4252,-9.4252 h -75.4015 a 9.425,9.425 0 0 0 -9.4252,9.4252 v 16.7475 a 9.425,9.425 0 0 0 9.4252,9.4252 z"
             style="fill:#4672c4;fill-rule:evenodd;stroke-width:0.75;stroke-linecap:round;stroke-linejoin:round"
             id="path905" />
          <path
             d="m 548.0079,148.9837 h 75.4015 a 9.425,9.425 0 0 0 9.4252,-9.4252 V 122.811 a 9.425,9.425 0 0 0 -9.4252,-9.4252 h -75.4015 a 9.425,9.425 0 0 0 -9.4252,9.4252 v 16.7475 a 9.425,9.425 0 0 0 9.4252,9.4252 z"
             style="fill:none;stroke:#000000;stroke-width:0.75;stroke-linecap:round;stroke-linejoin:round;stroke-dasharray:none"
             id="path907" />
        </g>
        <text
           x="565.81"
           y="132.88435"
           id="text912"
           style="font-style:normal;font-variant:normal;font-weight:normal;font-stretch:normal;font-size:12px;font-family:Consolas;-inkscape-font-specification:'Consolas, Normal';font-variant-ligatures:normal;font-variant-caps:normal;font-variant-numeric:normal;font-variant-east-asian:normal"><tspan
             font-family="Calibri"
             font-size="10px"
             fill="#000000"
             fill-opacity="1"
             stroke-opacity="1"
             id="tspan910"
             style="font-style:normal;font-variant:normal;font-weight:normal;font-stretch:normal;font-size:12px;font-family:Consolas;-inkscape-font-specification:'Consolas, Normal';font-variant-ligatures:normal;font-variant-caps:normal;font-variant-numeric:normal;font-variant-east-asian:normal">Nginx</tspan></text>
      </g>
      <path
         transform="translate(0,32.291566)"
         d="m 538.5827,131.1848 h -75.4725 v 93.5661"
         style="fill:none;stroke:#000000;stroke-width:1;stroke-linecap:round;stroke-linejoin:round;stroke-miterlimit:4;stroke-dasharray:none;marker-end:url(#marker1231)"
         id="path915" />
      <text
         transform="translate(0,32.291566)"
         x="485.49823"
         y="127.76819"
         id="text919"
         style="font-style:normal;font-variant:normal;font-weight:normal;font-stretch:normal;font-size:10.6667px;font-family:Consolas;-inkscape-font-specification:'Consolas, Normal';font-variant-ligatures:normal;font-variant-caps:normal;font-variant-numeric:normal;font-variant-east-asian:normal"><tspan
           font-family="Calibri"
           font-size="11px"
           fill="#000000"
           fill-opacity="1"
           stroke-opacity="1"
           id="tspan917"
           style="font-style:normal;font-variant:normal;font-weight:normal;font-stretch:normal;font-size:10.6667px;font-family:Consolas;-inkscape-font-specification:'Consolas, Normal';font-variant-ligatures:normal;font-variant-caps:normal;font-variant-numeric:normal;font-variant-east-asian:normal">Serves</tspan></text>
      <g
         id="Layer1015"
         transform="translate(-4.8070706,32.291566)">
        <g
           id="Layer1016">
          <path
             d="m 552.9685,260.3487 h 75.4016 a 9.425,9.425 0 0 0 9.4252,-9.4252 V 234.176 a 9.425,9.425 0 0 0 -9.4252,-9.4251 h -75.4016 a 9.425,9.425 0 0 0 -9.4252,9.4251 v 16.7475 a 9.425,9.425 0 0 0 9.4252,9.4252 z"
             style="fill:#4672c4;fill-rule:evenodd;stroke-width:0.75;stroke-linecap:round;stroke-linejoin:round"
             id="path922" />
          <path
             d="m 552.9685,260.3487 h 75.4016 a 9.425,9.425 0 0 0 9.4252,-9.4252 V 234.176 a 9.425,9.425 0 0 0 -9.4252,-9.4251 h -75.4016 a 9.425,9.425 0 0 0 -9.4252,9.4251 v 16.7475 a 9.425,9.425 0 0 0 9.4252,9.4252 z"
             style="fill:none;stroke:#000000;stroke-width:0.75;stroke-linecap:round;stroke-linejoin:round;stroke-dasharray:none"
             id="path924" />
        </g>
        <text
           x="561.70624"
           y="239.1507"
           id="text929"><tspan
             sodipodi:role="line"
             id="tspan919"
             x="561.70624"
             y="239.1507"><tspan
               font-family="Calibri"
               font-size="10px"
               fill="#000000"
               fill-opacity="1"
               stroke-opacity="1"
               id="tspan927"
               style="font-style:normal;font-variant:normal;font-weight:normal;font-stretch:normal;font-size:12px;font-family:Consolas;-inkscape-font-specification:'Consolas, Normal';font-variant-ligatures:normal;font-variant-caps:normal;font-variant-numeric:normal;font-variant-east-asian:normal">React.js</tspan></tspan><tspan
             sodipodi:role="line"
             id="tspan921"
             x="561.70624"
             y="254.68655"><tspan
               font-family="Calibri"
               font-size="10px"
               fill="#000000"
               fill-opacity="1"
               stroke-opacity="1"
               style="font-style:normal;font-variant:normal;font-weight:normal;font-stretch:normal;font-size:12px;font-family:Consolas;-inkscape-font-specification:'Consolas, Normal';font-variant-ligatures:normal;font-variant-caps:normal;font-variant-numeric:normal;font-variant-east-asian:normal"
               id="tspan923">Frontend</tspan></tspan></text>
      </g>
      <rect
         style="opacity:1;fill:#ffffff;fill-opacity:1;stroke-width:1.5;stroke-miterlimit:4;stroke-dasharray:none"
         id="rect2000"
         width="52.402954"
         height="15.862533"
         x="587.16437"
         y="211.96123" />
      <g
         id="Layer1018"
         transform="translate(1.62493,32.924206)"
         style="opacity:1;fill:#000000;fill-opacity:1">
        <text
           x="587.30896"
           y="190.5258"
           id="text943"
           style="font-style:normal;font-variant:normal;font-weight:normal;font-stretch:normal;font-size:10.6667px;font-family:Consolas;-inkscape-font-specification:'Consolas, Normal';font-variant-ligatures:normal;font-variant-caps:normal;font-variant-numeric:normal;font-variant-east-asian:normal;fill:#000000;fill-opacity:1"><tspan
             font-family="Calibri"
             font-size="11px"
             fill="#000000"
             fill-opacity="1"
             stroke-opacity="1"
             id="tspan941"
             style="font-style:normal;font-variant:normal;font-weight:normal;font-stretch:normal;font-size:10.6667px;font-family:Consolas;-inkscape-font-specification:'Consolas, Normal';font-variant-ligatures:normal;font-variant-caps:normal;font-variant-numeric:normal;font-variant-east-asian:normal;fill:#000000;fill-opacity:1">Uses API</tspan></text>
      </g>
      <g
         id="Layer1019"
         transform="translate(0,32.291566)">
        <path
           d="m 770.7287,104.5617 a 8.81,8.81 -180 1 1 -8.81,-8.81 8.81,8.81 -180 0 1 8.81,8.81 z m 1.2893,11.1889 h -20.414 c -3.9531,0 -7.1686,3.2156 -7.1686,7.1686 v 25.0041 h 5.5865 v -14.5498 h 1.8663 v 33.2443 h 9.097 v -14.8592 c 0,-0.5156 0.418,-0.9328 0.9328,-0.9328 0.5148,0 0.9328,0.4172 0.9328,0.9328 v 14.8592 h 9.6249 v -33.2999 h 1.8655 v 14.6054 h 4.8454 v -25.0041 c 0,-3.9523 -3.2155,-7.1686 -7.1686,-7.1686 z"
           style="fill:#ffc000;fill-rule:evenodd;stroke-width:0.75;stroke-linecap:round;stroke-linejoin:round"
           id="path946" />
        <path
           d="m 770.7287,104.5617 a 8.81,8.81 -180 1 1 -8.81,-8.81 8.81,8.81 -180 0 1 8.81,8.81 z m 1.2893,11.1889 h -20.414 c -3.9531,0 -7.1686,3.2156 -7.1686,7.1686 v 25.0041 h 5.5865 v -14.5498 h 1.8663 v 33.2443 h 9.097 v -14.8592 c 0,-0.5156 0.418,-0.9328 0.9328,-0.9328 0.5148,0 0.9328,0.4172 0.9328,0.9328 v 14.8592 h 9.6249 v -33.2999 h 1.8655 v 14.6054 h 4.8454 v -25.0041 c 0,-3.9523 -3.2155,-7.1686 -7.1686,-7.1686 z"
           style="fill:none;stroke:#000000;stroke-width:0.75;stroke-linecap:round;stroke-linejoin:round;stroke-dasharray:none"
           id="path948" />
      </g>
      <path
         id="path1639"
         d="m 560.33352,180.81812 v 74.9102"
         style="fill:none;stroke:#000000;stroke-width:1px;stroke-linecap:butt;stroke-linejoin:miter;stroke-opacity:1;marker-end:url(#marker1643)" />
      <g
         id="Layer1020"
         transform="translate(0,32.291566)">
        <path
           d="M 632.82839,131.1848 H 743.04357"
           style="fill:none;stroke:#000000;stroke-width:0.993773;stroke-linecap:round;stroke-linejoin:round;stroke-miterlimit:4;stroke-dasharray:none;marker-end:url(#marker1447)"
           id="path951" />
        <text
           x="650.12225"
           y="128.49384"
           id="text955"
           style="font-style:normal;font-variant:normal;font-weight:normal;font-stretch:normal;font-size:10.6667px;font-family:Consolas;-inkscape-font-specification:'Consolas, Normal';font-variant-ligatures:normal;font-variant-caps:normal;font-variant-numeric:normal;font-variant-east-asian:normal"><tspan
             font-family="Calibri"
             font-size="11px"
             fill="#000000"
             fill-opacity="1"
             stroke-opacity="1"
             id="tspan953"
             style="font-style:normal;font-variant:normal;font-weight:normal;font-stretch:normal;font-size:10.6667px;font-family:Consolas;-inkscape-font-specification:'Consolas, Normal';font-variant-ligatures:normal;font-variant-caps:normal;font-variant-numeric:normal;font-variant-east-asian:normal">Serves</tspan></text>
        <g
           id="g1955">
          <g
             id="g1949">
            <g
               id="g1960"
               transform="translate(0,-212.11199)">
              <rect
                 y="392.45358"
                 x="536.09784"
                 height="15.122614"
                 width="48.271"
                 id="rect1944"
                 style="opacity:1;fill:#ffffff;fill-opacity:1;stroke-width:1.26595;stroke-miterlimit:4;stroke-dasharray:none" />
              <text
                 x="542.76697"
                 y="402.46753"
                 id="text1547"
                 style="font-style:normal;font-variant:normal;font-weight:normal;font-stretch:normal;font-size:10.6667px;font-family:Consolas;-inkscape-font-specification:'Consolas, Normal';font-variant-ligatures:normal;font-variant-caps:normal;font-variant-numeric:normal;font-variant-east-asian:normal"><tspan
                   font-family="Calibri"
                   font-size="11px"
                   fill="#000000"
                   fill-opacity="1"
                   stroke-opacity="1"
                   id="tspan1545"
                   style="font-style:normal;font-variant:normal;font-weight:normal;font-stretch:normal;font-size:10.6667px;font-family:Consolas;-inkscape-font-specification:'Consolas, Normal';font-variant-ligatures:normal;font-variant-caps:normal;font-variant-numeric:normal;font-variant-east-asian:normal">Serves</tspan></text>
            </g>
          </g>
        </g>
      </g>
    </g>
  </g>
</svg>
